#N canvas 689 88 609 416 10;
#X obj 131 238 dac~;
#X obj 131 190 *~ 0.5;
#X obj 210 123 vsl 15 64 0 1 0 0 empty empty level 0 -9 0 10 -262144
-1 -1 0 1;
#X floatatom 210 198 5 0 0 0 - - -;
#X obj 110 144 polyblep~ 440;
#X floatatom 110 116 5 0 0 0 frequency_(Hz) - -;
#X obj 24 20 tgl 15 0 empty empty dsp_on/off 17 7 0 10 -262144 -1 -1
0 1;
#X msg 24 44 \; pd dsp \$1;
#N canvas 62 29 450 278 (subpatch) 0;
#X array \$0-array 100 float 0;
#X coords 0 1 99 -1 200 140 1 0 0;
#X restore 264 204 graph;
#X obj 110 327 tabwrite~ \$0-array;
#X obj 124 277 loadbang;
#X obj 124 300 metro 500;
#X msg 185 73 0;
#X text 113 73 reset phase;
#X connect 1 0 0 0;
#X connect 1 0 0 1;
#X connect 2 0 1 1;
#X connect 2 0 3 0;
#X connect 4 0 1 0;
#X connect 4 0 9 0;
#X connect 5 0 4 0;
#X connect 6 0 7 0;
#X connect 10 0 11 0;
#X connect 11 0 9 0;
#X connect 12 0 4 1;
